<svg width="64" height="64" viewBox="0 0 64 64" fill="none" xmlns="http://www.w3.org/2000/svg">
  <!-- Background circle -->
  <circle cx="32" cy="32" r="32" fill="url(#gradient)"/>
  
  <!-- Brain icon -->
  <path d="M32 12C25.4 12 20 17.4 20 24c0 2.2.6 4.3 1.7 6.1-1.1.9-1.7 2.3-1.7 3.9 0 2.8 2.2 5 5 5h2c.6 1.2 1.8 2 3 2h2c1.7 0 3-1.3 3-3v-2h2c2.8 0 5-2.2 5-5 0-1.6-.6-3-1.7-3.9C40.4 28.3 41 26.2 41 24c0-6.6-5.4-12-12-12z" fill="white" opacity="0.9"/>
  
  <!-- Checkmark -->
  <path d="M28 38l-4-4 1.4-1.4L28 35.2l8.6-8.6L38 28l-10 10z" fill="#4F46E5" stroke="white" stroke-width="1"/>
  
  <!-- Gradient definition -->
  <defs>
    <linearGradient id="gradient" x1="0" y1="0" x2="64" y2="64" gradientUnits="userSpaceOnUse">
      <stop offset="0%" stop-color="#8B5CF6"/>
      <stop offset="100%" stop-color="#4F46E5"/>
    </linearGradient>
  </defs>
</svg>
